<?xml version="1.0" encoding="UTF-8"?>
<!DOCTYPE svg PUBLIC "-//W3C//DTD SVG 1.1//EN" "http://www.w3.org/Graphics/SVG/1.1/DTD/svg11.dtd">
<svg xmlns="http://www.w3.org/2000/svg" version="1.1" width="300px" height="247px" style="shape-rendering:geometricPrecision; text-rendering:geometricPrecision; image-rendering:optimizeQuality; fill-rule:evenodd; clip-rule:evenodd" xmlns:xlink="http://www.w3.org/1999/xlink">
<g><path style="opacity:0.999" fill="#5e6167" d="M 127.5,-0.5 C 135.833,-0.5 144.167,-0.5 152.5,-0.5C 180.806,4.30674 202.14,19.1401 216.5,44C 251.975,41.4842 277.809,55.9842 294,87.5C 296.327,93.8282 298.16,100.162 299.5,106.5C 299.5,112.833 299.5,119.167 299.5,125.5C 292.786,159.381 272.453,179.881 238.5,187C 217.5,187.333 196.5,187.667 175.5,188C 142.052,192.149 120.218,210.315 110,242.5C 107.987,244.248 105.82,245.582 103.5,246.5C 101.833,246.5 100.167,246.5 98.5,246.5C 66.4981,232.213 48.3314,207.547 44,172.5C 20.6081,166.274 5.77472,151.607 -0.5,128.5C -0.5,121.833 -0.5,115.167 -0.5,108.5C 7.38739,79.6963 26.3874,65.0296 56.5,64.5C 67.1505,28.5125 90.8171,6.84584 127.5,-0.5 Z M 136.5,22.5 C 160.832,22.3307 179.832,32.164 193.5,52C 167.199,67.7685 155.033,90.9352 157,121.5C 160.732,127.046 165.899,128.879 172.5,127C 174.286,126.215 175.786,125.049 177,123.5C 178.566,114.027 180.899,104.694 184,95.5C 198.706,70.4843 219.873,62.6509 247.5,72C 271.51,85.5309 280.01,105.698 273,132.5C 264.816,151.011 250.649,161.511 230.5,164C 209.167,164.333 187.833,164.667 166.5,165C 134.228,170.795 110.228,187.962 94.5,216.5C 79.1637,205.835 70.4971,191.168 68.5,172.5C 78.9122,172.926 89.2456,172.426 99.5,171C 105.858,165.827 107.025,159.661 103,152.5C 101.421,150.959 99.5873,149.792 97.5,149C 79.4479,148.946 61.4479,148.279 43.5,147C 24.1734,137.682 18.6734,123.182 27,103.5C 33.247,93.9591 42.0804,88.9591 53.5,88.5C 53.4671,102.964 60.1338,107.797 73.5,103C 75.0488,101.786 76.2155,100.286 77,98.5C 74.6447,70.3888 84.8114,48.2221 107.5,32C 116.738,27.0865 126.405,23.9198 136.5,22.5 Z"/></g>
</svg>
